<mxfile host="65bd71144e">
    <diagram id="lmL0ZQW0tB1bLwi2YEN8" name="Page-1">
        <mxGraphModel dx="236" dy="713" grid="1" gridSize="10" guides="1" tooltips="1" connect="1" arrows="1" fold="1" page="1" pageScale="1" pageWidth="827" pageHeight="1169" math="0" shadow="0">
            <root>
                <mxCell id="0"/>
                <mxCell id="1" parent="0"/>
                <mxCell id="2" value="#activeKeys" style="whiteSpace=wrap;html=1;aspect=fixed;container=1;" vertex="1" parent="1">
                    <mxGeometry x="600" y="80" width="90" height="90" as="geometry"/>
                </mxCell>
            </root>
        </mxGraphModel>
    </diagram>
</mxfile>